<?xml version="1.0" encoding="utf-8"?>
<!-- Generator: Adobe Adobe Illustrator 29.1.0, SVG Export Plug-In . SVG Version: 6.00 Build 0)  -->
<svg version="1.1" id="Layer_1" xmlns="http://www.w3.org/2000/svg" xmlns:xlink="http://www.w3.org/1999/xlink" x="0px" y="0px"
	 viewBox="0 0 1280 720" style="enable-background:new 0 0 1280 720;" xml:space="preserve">
<style type="text/css">
	.st0{fill:#4DDCFC;}
	.st1{fill:#1C80DE;}
	.st2{fill:#1EBAF5;}
	.st3{fill:#1147C1;}
	.st4{fill:url(#SVGID_1_);}
</style>
<g>
	<g>
		<g>
			<polygon class="st0" points="557.67,431.24 500.95,394.35 510.18,380.16 540.74,400.04 540.74,304.85 595.63,272.19 
				687.72,327.6 679,342.1 595.58,291.92 557.67,314.48 			"/>
		</g>
	</g>
	<g>
		<g>
			<polygon class="st1" points="644.44,422.95 635.93,408.32 718.04,360.55 718.04,314.7 624.3,257.57 678.75,222.17 687.98,236.36 
				656.07,257.11 734.97,305.19 734.97,370.29 			"/>
		</g>
	</g>
	<g>
		<g>
			<polygon class="st2" points="640.01,478.05 586,442.59 586,333.38 602.93,333.38 602.93,433.45 640.36,458.04 734.97,400.6 
				734.97,465.39 718.04,465.39 718.04,430.68 			"/>
		</g>
	</g>
	<polygon class="st3" points="779.03,289.39 770.57,274.73 640.18,350.01 509.8,274.73 501.34,289.39 631.72,364.66 631.72,515.22 
		648.65,515.22 648.65,364.67 	"/>
	<g>
		<g>
			<linearGradient id="SVGID_1_" gradientUnits="userSpaceOnUse" x1="497.105" y1="359.7779" x2="783.2653" y2="359.7779">
				<stop  offset="0" style="stop-color:#124FC2"/>
				<stop  offset="1" style="stop-color:#1DB9F4"/>
			</linearGradient>
			<path class="st4" d="M640.19,524.99L497.1,442.39V277.17l143.08-82.61l143.08,82.61v165.22L640.19,524.99z M514.03,432.62
				l126.15,72.83l126.15-72.83V286.94l-126.15-72.83l-126.15,72.83V432.62z"/>
		</g>
	</g>
</g>
</svg>
